<svg xmlns="http://www.w3.org/2000/svg" xmlns:xlink="http://www.w3.org/1999/xlink" width="28" height="28" viewBox="0 0 28 28"><defs><style>.a{fill:url(#a);}.b{filter:url(#b);}</style><linearGradient id="a" x1="0.018" y1="0.985" x2="0.985" gradientUnits="objectBoundingBox"><stop offset="0" stop-color="#7eaeff"/><stop offset="0.288" stop-color="#4583ef"/><stop offset="0.771" stop-color="#427bdd" stop-opacity="0.922"/><stop offset="1" stop-color="#759fe6"/></linearGradient><filter id="b" x="0" y="0" width="28" height="28" filterUnits="userSpaceOnUse"><feOffset dy="2" input="SourceAlpha"/><feGaussianBlur stdDeviation="2" result="c"/><feFlood flood-opacity="0.153"/><feComposite operator="in" in2="c"/><feComposite in="SourceGraphic"/></filter></defs><g class="b" transform="matrix(1, 0, 0, 1, 0, 0)"><path class="a" d="M16.21,24.21a8,8,0,1,0-8-8A8,8,0,0,0,16.21,24.21Zm-3.124-8.5h2.62v-2.62a.5.5,0,0,1,1.009,0v2.62h2.62a.5.5,0,1,1,0,1.009h-2.62v2.62a.5.5,0,0,1-1.009,0v-2.62h-2.62a.5.5,0,1,1,0-1.009Z" transform="translate(-2.21 -4.21)"/></g></svg>