<svg xmlns="http://www.w3.org/2000/svg" width="19.63" height="26.13" viewBox="0 0 19.63 26.13"><defs><style>.a{fill:#bcc0cb;}</style></defs><g transform="translate(-6.54 -1)"><path class="a" d="M23.549,6.3H22.39V7.795a2.237,2.237,0,0,1-2.2,2.272h-7.88a2.236,2.236,0,0,1-2.19-2.272V6.3H9.151A2.654,2.654,0,0,0,6.54,8.991V27.158a2.654,2.654,0,0,0,2.611,2.691h14.4a2.66,2.66,0,0,0,2.621-2.691V8.991A2.66,2.66,0,0,0,23.549,6.3Zm-3.52,5.829a.571.571,0,0,1-.005.783L16.95,16.089a.535.535,0,0,1-.377.16.544.544,0,0,1-.377-.16L14.68,14.506a.564.564,0,0,1,0-.778.518.518,0,0,1,.755,0l1.143,1.191,2.7-2.791A.522.522,0,0,1,20.029,12.129Zm-7.507-.4a.54.54,0,0,1,.532-.551h4.573a.552.552,0,0,1,0,1.1H13.585v5.107h4.923V15.664a.532.532,0,1,1,1.063,0v2.278a.54.54,0,0,1-.532.551H13.053a.544.544,0,0,1-.532-.551v-6.21Zm-.372,8.758h8.406a.552.552,0,0,1,0,1.1H12.149a.552.552,0,0,1,0-1.1Zm10.3,5.7h-12.2a.552.552,0,0,1,0-1.1h12.2a.552.552,0,0,1,0,1.1Zm0-2.3h-12.2a.552.552,0,0,1,0-1.1h12.2a.552.552,0,0,1,0,1.1Z" transform="translate(0 -2.719)"/><path class="a" d="M25,2.441H22.971a2.443,2.443,0,0,0-4.456,0H16.5A1.14,1.14,0,0,0,15.28,3.479V4.9A1.136,1.136,0,0,0,16.5,5.933H25A1.138,1.138,0,0,0,26.217,4.9V3.479A1.142,1.142,0,0,0,25,2.441ZM20.752,3.586a.774.774,0,0,1-.832-.706.839.839,0,0,1,1.658,0A.772.772,0,0,1,20.752,3.586Z" transform="translate(-4.484)"/></g></svg>