<svg xmlns="http://www.w3.org/2000/svg" width="16.2" height="22.2" viewBox="0 0 16.2 22.2"><defs><style>.a{fill:#bfc3ce;stroke:#bfc3ce;stroke-width:0.2px;}</style></defs><path class="a" d="M78.348,7.9h2.7a.322.322,0,0,0,0-.645h-2.7a.322.322,0,0,0,0,.645ZM77,2a.322.322,0,1,0-.321-.322A.322.322,0,0,0,77,2Zm.005,10.449L75.263,14.2l-.545-.547a.32.32,0,0,0-.454,0,.323.323,0,0,0,0,.456l.771.775a.32.32,0,0,0,.454,0L77.459,12.9a.323.323,0,0,0,0-.456A.32.32,0,0,0,77.005,12.447Zm1.342-3.263h2.7a.322.322,0,0,0,0-.645h-2.7a.322.322,0,0,0,0,.645Zm0,5.8h2.7a.322.322,0,0,0,0-.645h-2.7a.322.322,0,0,0,0,.645Zm-5.39,1h2.948a.322.322,0,0,0,0-.645H73.278V12.7h2.627a.322.322,0,0,0,0-.645H72.957a.322.322,0,0,0-.321.322v3.287A.322.322,0,0,0,72.957,15.984Zm5.39-2.288h2.7a.322.322,0,0,0,0-.645h-2.7a.322.322,0,0,0,0,.645Zm-5.39-3.513h2.948a.322.322,0,0,0,0-.645H73.278V6.9h2.627a.322.322,0,0,0,0-.645H72.957a.322.322,0,0,0-.321.322V9.861A.322.322,0,0,0,72.957,10.184ZM83.4,1.891H80.174a.784.784,0,0,0-.755-.582H78.75a.135.135,0,0,1-.125-.1,1.7,1.7,0,0,0-3.25,0,.135.135,0,0,1-.125.1h-.669a.784.784,0,0,0-.755.582H70.6A1.61,1.61,0,0,0,69,3.5V20.389A1.61,1.61,0,0,0,70.6,22H83.4A1.61,1.61,0,0,0,85,20.389V3.5A1.61,1.61,0,0,0,83.4,1.891Zm-8.956.2a.142.142,0,0,1,.141-.142h.669a.773.773,0,0,0,.739-.557,1.056,1.056,0,0,1,2.022,0,.773.773,0,0,0,.739.557h.669a.142.142,0,0,1,.141.142v1.87a.142.142,0,0,1-.141.142H74.581a.142.142,0,0,1-.141-.142Zm-.586,2.159a.784.784,0,0,0,.728.5h4.838a.784.784,0,0,0,.728-.5h1.966a.537.537,0,0,1,.535.537V17.059H80.829a.751.751,0,0,0-.749.752v1.826H71.888a.537.537,0,0,1-.535-.537V4.791a.537.537,0,0,1,.535-.537ZM82.193,17.7l-1.471,1.478v-1.37a.107.107,0,0,1,.107-.107Zm2.165,2.686a.966.966,0,0,1-.963.967H70.6a.966.966,0,0,1-.963-.967V3.5a.966.966,0,0,1,.963-.967H73.8V3.609h-1.91a1.18,1.18,0,0,0-1.176,1.182V19.1a1.18,1.18,0,0,0,1.176,1.182H80.4l.032,0,.023,0h.008l.026-.007h0l.026-.009h0l.024-.011,0,0,.021-.012.006,0,.019-.014.006,0,.023-.021,2.567-2.578.021-.023,0-.007.014-.019,0-.006.012-.021,0,0,.011-.024v0c0-.009.007-.017.009-.026v0c0-.009,0-.018.007-.027v-.008c0-.008,0-.015,0-.023s0-.021,0-.032V4.791a1.18,1.18,0,0,0-1.176-1.182H80.2V2.535H83.4a.966.966,0,0,1,.963.967ZM74.718,7.85a.32.32,0,0,0-.454,0,.323.323,0,0,0,0,.456l.771.775a.32.32,0,0,0,.454,0L77.459,7.1a.323.323,0,0,0,0-.456.32.32,0,0,0-.454,0L75.263,8.4Z" transform="translate(-68.9 0.1)"/></svg>