<svg xmlns="http://www.w3.org/2000/svg" width="17.431" height="17.395" viewBox="0 0 17.431 17.395"><defs><style>.a{fill:#bfc3ce;}</style></defs><g transform="translate(-0.9 -1)"><path class="a" d="M20.358,14.916a.391.391,0,0,0,.254.109.329.329,0,0,0,.254-.109l2.609-2.609a.359.359,0,0,0-.507-.507l-2.356,2.356L19.561,13.1a.359.359,0,1,0-.507.507Zm-.58-10.69A3.053,3.053,0,0,0,16.589,1,3.034,3.034,0,0,0,13.4,4.225c0,1.921,1.3,4.059,3.189,4.059S19.778,6.146,19.778,4.225Zm-5.653,0a2.312,2.312,0,0,1,2.464-2.5,2.312,2.312,0,0,1,2.464,2.5c0,1.739-1.16,3.334-2.464,3.334S14.125,6,14.125,4.225Z" transform="translate(-7.97)"/><path class="a" d="M2.386,28.629H8.909A5.019,5.019,0,1,0,13.294,21.2a5.01,5.01,0,0,0-3.117,1.087c-.4-.036-.8-.072-1.268-.072-.58,0-1.16,0-1.7.036a8.555,8.555,0,0,0-3.733,1.015A4.932,4.932,0,0,0,.936,26.745a1.614,1.614,0,0,0,.326,1.341A1.406,1.406,0,0,0,2.386,28.629Zm15.22-2.392a4.312,4.312,0,1,1-4.312-4.312A4.3,4.3,0,0,1,17.606,26.237ZM1.7,26.926h0a4.258,4.258,0,0,1,1.993-2.9,9.1,9.1,0,0,1,4.276-1.051h.942a3.117,3.117,0,0,1,.58.036,4.949,4.949,0,0,0-1.2,3.261,5.032,5.032,0,0,0,.29,1.667h-6.2a.7.7,0,0,1-.544-.254A.949.949,0,0,1,1.7,26.926Z" transform="translate(0 -12.88)"/></g></svg>