<svg xmlns="http://www.w3.org/2000/svg" width="19.625" height="26.133" viewBox="0 0 19.625 26.133"><defs><style>.a{fill:#bcc0cb;}.b,.c{fill:#fff;}.b{opacity:0;}</style></defs><g transform="translate(-17.97 -189.962)"><path class="a" d="M12.834,1106.227a5.723,5.723,0,1,0,5.717,5.724,5.733,5.733,0,0,0-5.717-5.724Zm-5.248,13.081a4.559,4.559,0,0,0-4.565,4.536v7.7a.817.817,0,0,0,.817.818h18a.817.817,0,0,0,.813-.818v-7.7a4.559,4.559,0,0,0-4.565-4.536Z" transform="translate(14.948 -916.265)"/><g transform="translate(23 205.092)"><g transform="translate(0 0.382)"><rect class="b" width="9" height="9" transform="translate(0 0.025)"/><path class="c" d="M8.657,8.06a.387.387,0,0,0-.548.548L9.266,9.765a.374.374,0,0,0,.551-.019l2.7-3.085a.386.386,0,0,0-.578-.509L9.54,8.928Z" transform="translate(-4.912 -3.936)"/><path class="c" d="M9.359,5.471a.386.386,0,0,0-.386.386A3.084,3.084,0,1,1,5.888,2.771a3.39,3.39,0,0,1,.733.085A.386.386,0,1,0,6.8,2.108,4.065,4.065,0,0,0,5.888,2,3.856,3.856,0,1,0,9.745,5.856a.386.386,0,0,0-.386-.386Z" transform="translate(-1.26 -1.459)"/></g></g></g></svg>