<svg xmlns="http://www.w3.org/2000/svg" width="18" height="18" viewBox="0 0 18 18"><defs><style>.a{fill:#bfc3ce;fill-rule:evenodd;}</style></defs><g transform="translate(0 -220)"><path class="a" d="M1233.392,733.017v8.5a1.875,1.875,0,0,1-1.664,1.937q-2.639.009-5.279.011l2.168,4.345a.394.394,0,0,1,.047.18c.016.274-.255.527-.5.411a.4.4,0,0,1-.173-.176l-2.261-4.531v4.678a.461.461,0,0,1,0,.058.362.362,0,0,1-.576.27.439.439,0,0,1-.135-.27.577.577,0,0,1,0-.058V743.7l-2.261,4.531a.338.338,0,0,1-.112.138.364.364,0,0,1-.555-.291.493.493,0,0,1,.045-.262l2.168-4.345q-2.639,0-5.279-.011a1.871,1.871,0,0,1-1.663-1.937v-8.5h-.979a4.238,4.238,0,0,1,.076-1.25,1.307,1.307,0,0,1,1.163-.954c5.168-.055,10.337-.021,15.5,0a1.4,1.4,0,0,1,1.248,1.443v.761Zm-.718,0h-14.6c0,2.839-.023,5.678,0,8.517a1.066,1.066,0,0,0,.944,1.092q6.354.07,12.709,0a1.07,1.07,0,0,0,.944-1.107Zm-13.161,7.727h10.993v.831H1218.8v-6.52h.718Zm8.217-5.689a.323.323,0,0,1,.143.046l2.44,1.465a.343.343,0,0,1,.063.048c.216.206.115.719-.212.736a.351.351,0,0,1-.182-.046l-2.234-1.342L1225.513,738l-.027.023c-.1.065-.073.049-.157.064l-3.139.385-1.78,1.64-.03.025a.341.341,0,0,1-.067.039c-.253.11-.57-.217-.46-.541a.464.464,0,0,1,.11-.173l1.862-1.716a.274.274,0,0,1,.186-.088l3.14-.385,2.336-2.125.031-.025C1227.637,735.04,1227.591,735.053,1227.731,735.055Zm5.385-3.412h-15.48a.59.59,0,0,0-.534.541v0h16.547A.587.587,0,0,0,1233.116,731.643Z" transform="translate(-1216.371 -510.782)"/></g></svg>