<svg xmlns="http://www.w3.org/2000/svg" width="26.644" height="21.243" viewBox="0 0 26.644 21.243"><defs><style>.a{fill:#cbced7;opacity:0.543;}.b{fill:#bcc0cb;}</style></defs><g transform="translate(-110.97 -216.775)"><g transform="translate(110.97 216.775)"><path class="a" d="M8.482,1106.227a3.468,3.468,0,0,0,0,6.913,3.468,3.468,0,0,0,0-6.913Zm-2.92,7.9a2.65,2.65,0,0,0-2.54,2.74v4.65a.475.475,0,0,0,.454.494H13.489a.475.475,0,0,0,.453-.494v-4.65a2.65,2.65,0,0,0-2.54-2.74Z" transform="translate(12.702 -1102.393)"/><path class="a" d="M8.482,1106.227a3.468,3.468,0,0,0,0,6.913,3.468,3.468,0,0,0,0-6.913Zm-2.92,7.9a2.65,2.65,0,0,0-2.54,2.74v4.65a.475.475,0,0,0,.454.494H13.489a.475.475,0,0,0,.453-.494v-4.65a2.65,2.65,0,0,0-2.54-2.74Z" transform="translate(-3.022 -1102.393)"/><path class="b" d="M10.371,1106.227a4.668,4.668,0,0,0,0,9.3,4.668,4.668,0,0,0,0-9.3ZM6.44,1116.86a3.567,3.567,0,0,0-3.419,3.687v6.258a.64.64,0,0,0,.612.665H17.11a.64.64,0,0,0,.609-.665v-6.258a3.567,3.567,0,0,0-3.419-3.687Z" transform="translate(2.968 -1106.227)"/></g></g></svg>