<svg xmlns="http://www.w3.org/2000/svg" width="18" height="18" viewBox="0 0 18 18"><defs><style>.a{fill:#cbced7;}</style></defs><path class="a" d="M14.822,10.209a4.837,4.837,0,0,1-.7-.253h0A4.613,4.613,0,0,0,15.75,6.216a3.421,3.421,0,0,0-3.431-3.4A3.376,3.376,0,0,0,9,0,3.426,3.426,0,0,0,5.681,2.813,3.41,3.41,0,0,0,2.25,6.159,4.946,4.946,0,0,0,3.881,9.928l-.028.028a5.814,5.814,0,0,1-.675.253C2,10.6,0,11.278,0,13.584V15.1a.564.564,0,0,0,.563.563H2.306a4.616,4.616,0,0,0-.056.647v1.125A.564.564,0,0,0,2.813,18H15.188a.564.564,0,0,0,.563-.562V16.313a4.616,4.616,0,0,0-.056-.647h1.744A.564.564,0,0,0,18,15.1V13.584C18,11.278,16,10.6,14.822,10.209Zm-.2-3.994c0,1.406-.731,2.925-1.969,3.263a6.776,6.776,0,0,0,.281-1.884,3.85,3.85,0,0,0-1.856-3.319,2.6,2.6,0,0,1,1.209-.338A2.3,2.3,0,0,1,14.625,6.216ZM6.188,7.594a2.813,2.813,0,0,1,5.625,0c0,2.081-1.406,4.219-2.812,4.219S6.188,9.675,6.188,7.594ZM9,1.125a2.255,2.255,0,0,1,2.194,1.856,4.148,4.148,0,0,0-1.322.759A4.628,4.628,0,0,0,9,3.628a2.967,2.967,0,0,0-.872.112,3.262,3.262,0,0,0-1.322-.759A2.255,2.255,0,0,1,9,1.125ZM3.375,6.159A2.271,2.271,0,0,1,5.709,3.938a2.31,2.31,0,0,1,1.209.338A3.85,3.85,0,0,0,5.063,7.594a6.776,6.776,0,0,0,.281,1.884C4.106,9.113,3.375,7.594,3.375,6.159Zm-2.25,8.381v-.956c0-1.378,1.041-1.856,2.419-2.306a8.443,8.443,0,0,0,.816-.309,1.835,1.835,0,0,0,.591-.45,4.542,4.542,0,0,0,.928.169,5.388,5.388,0,0,0,1.1,1.378l-.169.084c-.2.084-.506.2-.844.309a5.448,5.448,0,0,0-3.234,2.081Zm15.75,0H15.3a5.1,5.1,0,0,0-3.009-2,.547.547,0,0,0-.7.366.558.558,0,0,0,.366.7c1.434.478,2.7,1.041,2.7,2.7v.563H3.375v-.562c0-1.687,1.266-2.25,2.925-2.784a4.546,4.546,0,0,0,.956-.366,1.849,1.849,0,0,0,.647-.478,2.6,2.6,0,0,0,1.1.253,3.964,3.964,0,0,0,3.15-2.25,2.7,2.7,0,0,0,.928-.169,1.835,1.835,0,0,0,.591.45,8.443,8.443,0,0,0,.816.309c1.35.45,2.419.928,2.419,2.306v.956Z"/></svg>