<svg xmlns="http://www.w3.org/2000/svg" xmlns:xlink="http://www.w3.org/1999/xlink" width="45.836" height="38.289" viewBox="0 0 45.836 38.289"><defs><style>.a{fill:url(#a);}.b{fill:#fff;}.c{filter:url(#d);}.d{filter:url(#b);}</style><linearGradient id="a" x1="0.982" y1="0.015" x2="0.015" y2="1" gradientUnits="objectBoundingBox"><stop offset="0" stop-color="#7eaeff"/><stop offset="0.288" stop-color="#4583ef"/><stop offset="0.771" stop-color="#427bdd" stop-opacity="0.922"/><stop offset="1" stop-color="#759fe6"/></linearGradient><filter id="b" x="8.893" y="6" width="28" height="24" filterUnits="userSpaceOnUse"><feOffset dy="2" input="SourceAlpha"/><feGaussianBlur stdDeviation="2" result="c"/><feFlood flood-color="#4780e4" flood-opacity="0.302"/><feComposite operator="in" in2="c"/><feComposite in="SourceGraphic"/></filter><filter id="d" x="0" y="0" width="45.836" height="38.289" filterUnits="userSpaceOnUse"><feOffset dy="5" input="SourceAlpha"/><feGaussianBlur stdDeviation="5" result="e"/><feFlood flood-opacity="0.153"/><feComposite operator="in" in2="e"/><feComposite in="SourceGraphic"/></filter></defs><g transform="translate(14.893 10)"><g class="d" transform="matrix(1, 0, 0, 1, -14.89, -10)"><rect class="a" width="16" height="12" rx="1" transform="translate(14.89 10)"/></g><g class="c" transform="matrix(1, 0, 0, 1, -14.89, -10)"><path class="b" d="M-921.873-127a1.142,1.142,0,0,0-1.019.783l7.56,7.353a.5.5,0,0,0,.713.006l7.563-7.156a1.212,1.212,0,0,0-.872-.934l-7.039,6.665L-921.873-127Z" transform="translate(937.89 137)"/></g></g></svg>