<svg xmlns="http://www.w3.org/2000/svg" xmlns:xlink="http://www.w3.org/1999/xlink" width="28" height="30" viewBox="0 0 28 30"><defs><style>.a{fill:url(#a);}.b{filter:url(#b);}</style><linearGradient id="a" x1="0.982" y1="0.015" x2="0.015" y2="1" gradientUnits="objectBoundingBox"><stop offset="0" stop-color="#7eaeff"/><stop offset="0.288" stop-color="#4583ef"/><stop offset="0.771" stop-color="#427bdd" stop-opacity="0.922"/><stop offset="1" stop-color="#759fe6"/></linearGradient><filter id="b" x="0" y="0" width="28" height="30" filterUnits="userSpaceOnUse"><feOffset dy="2" input="SourceAlpha"/><feGaussianBlur stdDeviation="2" result="c"/><feFlood flood-color="#4883eb" flood-opacity="0.302"/><feComposite operator="in" in2="c"/><feComposite in="SourceGraphic"/></filter></defs><g class="b" transform="matrix(1, 0, 0, 1, 0, 0)"><path class="a" d="M12,3a2,2,0,0,0-2,2v.341A6,6,0,0,0,6,11v5H5a1,1,0,0,0,0,2H19a1,1,0,0,0,0-2H18V11a6,6,0,0,0-4-5.659V5A2,2,0,0,0,12,3Zm0,18a2,2,0,0,1-2-2h4A2,2,0,0,1,12,21Z" transform="translate(2 1)"/></g></svg>