<svg xmlns="http://www.w3.org/2000/svg" width="18.205" height="17.119" viewBox="0 0 18.205 17.119"><defs><style>.a{fill:#cbced7;}</style></defs><g transform="translate(0 -1036.47)"><path class="a" d="M15.494.107a.535.535,0,0,0-.526.542v1.6H13.31a.535.535,0,0,0,.053,1.068h1.6v1.6a.535.535,0,1,0,1.068,0v-1.6h1.6a.535.535,0,1,0,0-1.068h-1.6V.649a.535.535,0,0,0-.542-.542ZM7.484,2.26A3.742,3.742,0,1,0,11.226,6,3.75,3.75,0,0,0,7.484,2.26Zm0,1.07A2.672,2.672,0,1,1,4.812,6,2.664,2.664,0,0,1,7.484,3.33Zm0,7.482C3.392,10.812,0,13.63,0,17.227H1.07c0-2.918,2.807-5.345,6.414-5.345S13.9,14.308,13.9,17.227h1.068C14.966,13.63,11.577,10.812,7.484,10.812Z" transform="translate(0 1036.362)"/></g></svg>