<svg xmlns="http://www.w3.org/2000/svg" width="24" height="24" viewBox="0 0 24 24"><defs><style>.a{fill:#bcc0cb;opacity:0.801;}.b{fill:#cdd0d9;}.c{fill:#fff;}</style></defs><g transform="translate(-16 -492)"><path class="a" d="M22.533,9.592H21.384a.956.956,0,0,1-.792-.614,8.589,8.589,0,0,0-.384-.914.934.934,0,0,1,.122-.989l.82-.82a1.472,1.472,0,0,0,0-2.077L19.823,2.851a1.464,1.464,0,0,0-1.041-.431,1.445,1.445,0,0,0-1.041.431l-.816.82a.843.843,0,0,1-.586.211.878.878,0,0,1-.4-.089,9.187,9.187,0,0,0-.914-.384.95.95,0,0,1-.614-.792V1.467A1.474,1.474,0,0,0,12.938,0H11.063A1.47,1.47,0,0,0,9.6,1.467V2.616a.95.95,0,0,1-.614.792,9.154,9.154,0,0,0-.914.38.942.942,0,0,1-.4.089.843.843,0,0,1-.586-.211l-.816-.816a1.471,1.471,0,0,0-2.081,0L2.85,4.182a1.466,1.466,0,0,0,0,2.077l.82.82a.945.945,0,0,1,.127.989,9.683,9.683,0,0,0-.384.914A.95.95,0,0,1,2.62,9.6H1.472A1.468,1.468,0,0,0,0,11.065V12.94a1.47,1.47,0,0,0,1.467,1.467H2.616a.95.95,0,0,1,.792.614,8.589,8.589,0,0,0,.384.914.935.935,0,0,1-.127.989l-.82.82a1.472,1.472,0,0,0,0,2.077l1.331,1.332a1.471,1.471,0,0,0,2.081,0l.82-.82a.843.843,0,0,1,.586-.211.878.878,0,0,1,.4.089,8.166,8.166,0,0,0,.914.38.95.95,0,0,1,.614.792v1.149A1.47,1.47,0,0,0,11.063,24h1.875a1.474,1.474,0,0,0,1.472-1.467V21.384a.95.95,0,0,1,.614-.792,9.153,9.153,0,0,0,.914-.38.927.927,0,0,1,.4-.089.843.843,0,0,1,.586.211l.816.82a1.471,1.471,0,0,0,2.081,0l1.327-1.332a1.472,1.472,0,0,0,0-2.077l-.816-.816a.934.934,0,0,1-.122-.989,8.169,8.169,0,0,0,.38-.914.95.95,0,0,1,.792-.614h1.148A1.47,1.47,0,0,0,24,12.945v-1.88A1.474,1.474,0,0,0,22.533,9.592Zm-10.388,11a4.638,4.638,0,0,0,2.264-3.666c0-2.372-5.106,1.973-2.729,1.973s-.255-2.008-.255.369S12.145,20.592,12.145,20.592Z" transform="translate(16 492)"/><circle class="b" cx="8" cy="8" r="8" transform="translate(20 496)"/><g transform="translate(-102.105 271.079)"><path class="c" d="M7.17,1106.227a2.422,2.422,0,1,0,2.417,2.423,2.425,2.425,0,0,0-2.417-2.423Zm-2.218,5.537a1.928,1.928,0,0,0-1.93,1.92v3.259a.346.346,0,0,0,.345.346h7.607a.346.346,0,0,0,.344-.346v-3.259a1.928,1.928,0,0,0-1.93-1.92Z" transform="translate(122.948 -879.452)"/></g></g></svg>